HIERARCHY
ROOT Hips
{
	OFFSET 0.000000 0.000000 0.000000
	CHANNELS 6 Xposition Yposition Zposition Zrotation Yrotation Xrotation 
	JOINT LHipJoint
	{
		OFFSET 0.000000 0.000000 0.000000
		CHANNELS 3 Zrotation Yrotation Xrotation
		JOINT LeftUpLeg
		{
			OFFSET 1.363060 -1.794630 0.839290
			CHANNELS 3 Zrotation Yrotation Xrotation
			JOINT LeftLeg
			{
				OFFSET 2.448110 -6.726130 0.000000
				CHANNELS 3 Zrotation Yrotation Xrotation
				JOINT LeftFoot
				{
					OFFSET 2.562200 -7.039590 0.000000
					CHANNELS 3 Zrotation Yrotation Xrotation
					JOINT LeftToeBase
					{
						OFFSET 0.157640 -0.433110 2.322550
						CHANNELS 3 Zrotation Yrotation Xrotation
						End Site
						{
							OFFSET 0.000000 0.000000 0.000000
						}
					}
				}
			}
		}
	}
	JOINT RHipJoint
	{
		OFFSET 0.000000 0.000000 0.000000
		CHANNELS 3 Zrotation Yrotation Xrotation
		JOINT RightUpLeg
		{
			OFFSET -1.305520 -1.794630 0.839290
			CHANNELS 3 Zrotation Yrotation Xrotation
			JOINT RightLeg
			{
				OFFSET -2.542530 -6.985550 0.000000
				CHANNELS 3 Zrotation Yrotation Xrotation
				JOINT RightFoot
				{
					OFFSET -2.568260 -7.056230 0.000000
					CHANNELS 3 Zrotation Yrotation Xrotation
					JOINT RightToeBase
					{
						OFFSET -0.164730 -0.452590 2.363150
						CHANNELS 3 Zrotation Yrotation Xrotation
						End Site
						{
							OFFSET 0.000000 0.000000 0.000000
						}
					}
				}
			}
		}
	}
	JOINT LowerBack
	{
		OFFSET 0.000000 0.000000 0.000000
		CHANNELS 3 Zrotation Yrotation Xrotation
		JOINT Spine
		{
			OFFSET 0.028270 2.035590 -0.193380
			CHANNELS 3 Zrotation Yrotation Xrotation
			JOINT Spine1
			{
				OFFSET 0.056720 2.048850 -0.042750
				CHANNELS 3 Zrotation Yrotation Xrotation
				JOINT Neck
				{
					OFFSET 0.000000 0.000000 0.000000
					CHANNELS 3 Zrotation Yrotation Xrotation
					JOINT Neck1
					{
						OFFSET -0.054170 1.746240 0.172020
						CHANNELS 3 Zrotation Yrotation Xrotation
						JOINT Head
						{
							OFFSET 0.104070 1.761360 -0.123970
							CHANNELS 3 Zrotation Yrotation Xrotation
							End Site
							{
								OFFSET 0.000000 0.000000 0.000000
							}
						}
					}
				}
				JOINT LeftShoulder
				{
					OFFSET 0.000000 0.000000 0.000000
					CHANNELS 3 Zrotation Yrotation Xrotation
					JOINT LeftArm
					{
						OFFSET 3.362410 1.200890 -0.311210
						CHANNELS 3 Zrotation Yrotation Xrotation
						JOINT LeftForeArm
						{
							OFFSET 4.983000 -0.000000 -0.000000
							CHANNELS 3 Zrotation Yrotation Xrotation
							JOINT LeftHand
							{
								OFFSET 3.483560 -0.000000 -0.000000
								CHANNELS 3 Zrotation Yrotation Xrotation
								JOINT LeftFingerBase
								{
									OFFSET 0.000000 0.000000 0.000000
									CHANNELS 3 Zrotation Yrotation Xrotation
									JOINT LeftHandIndex1
									{
										OFFSET 0.715260 -0.000000 -0.000000
										CHANNELS 3 Zrotation Yrotation Xrotation
										End Site
										{
											OFFSET 0.000000 0.000000 0.000000
										}
									}
								}
								JOINT LThumb
								{
									OFFSET 0.000000 0.000000 0.000000
									CHANNELS 3 Zrotation Yrotation Xrotation
									End Site
									{
										OFFSET 0.000000 0.000000 0.000000
									}
								}
							}
						}
					}
				}
				JOINT RightShoulder
				{
					OFFSET 0.000000 0.000000 0.000000
					CHANNELS 3 Zrotation Yrotation Xrotation
					JOINT RightArm
					{
						OFFSET -3.136600 1.374050 -0.404650
						CHANNELS 3 Zrotation Yrotation Xrotation
						JOINT RightForeArm
						{
							OFFSET -5.241900 -0.000000 -0.000000
							CHANNELS 3 Zrotation Yrotation Xrotation
							JOINT RightHand
							{
								OFFSET -3.444170 -0.000000 -0.000000
								CHANNELS 3 Zrotation Yrotation Xrotation
								JOINT RightFingerBase
								{
									OFFSET 0.000000 0.000000 0.000000
									CHANNELS 3 Zrotation Yrotation Xrotation
									JOINT RightHandIndex1
									{
										OFFSET -0.622530 -0.000000 -0.000000
										CHANNELS 3 Zrotation Yrotation Xrotation
										End Site
										{
											OFFSET 0.000000 0.000000 0.000000
										}
									}
								}
								JOINT RThumb
								{
									OFFSET 0.000000 0.000000 0.000000
									CHANNELS 3 Zrotation Yrotation Xrotation
									End Site
									{
										OFFSET 0.000000 0.000000 0.000000
									}
								}
							}
						}
					}
				}
			}
		}
	}
}
MOTION
Frames: 11
Frame Time: 0.008333
45.030661 17.025230 12.485906 -176.464803 26.376073 178.678508 1.359786 -3.547690 -1.405680 -11.655731 9.723052 -21.420473 0.585613 8.994360 25.050148 -1.356282 10.108138 -2.053579 0.005100 -0.461300 -1.267500 -4.412652 6.105425 -7.927248 9.527731 -20.287109 35.391828 0.475328 -2.334207 1.007247 1.377986 -22.112860 -25.279004 -0.191700 2.819800 -7.777500 14.630366 0.608803 11.438514 1.910482 2.815945 -1.307636 -1.756512 0.945749 5.214737 2.712711 5.438442 -27.468550 0.687804 6.129483 7.870879 -2.819300 2.532800 12.833200 6.141029 -0.484381 1.813647 -3.560169 -43.281260 -3.536759 21.235278 -30.176156 -6.587310 -0.065685 0.853691 -5.702412 19.652709 -23.188281 -8.289800 -7.125000 0.000000 0.000000 -5.949100 4.691900 5.472800 -1.935171 -0.985057 0.036615 4.965354 61.225415 -6.500089 -23.135151 35.728607 -6.477102 0.465573 -1.643168 -1.535837 -9.873968 -31.195341 5.115500 7.125000 0.000000 0.000000 23.150300 -58.317500 -7.811300 
45.043863 16.975903 12.357676 -176.214978 26.131284 178.709948 1.390713 -3.580017 -1.455925 -11.796573 9.211306 -21.890238 0.874448 9.600508 26.848513 -1.353637 10.109280 -2.322208 0.233900 -3.112600 -8.592400 -4.388266 6.136282 -7.915756 9.265443 -20.524167 35.763974 0.494174 -2.503758 1.438265 1.434684 -22.148865 -24.475021 -0.296300 3.500200 -9.674700 14.656855 0.668616 11.457635 1.806974 2.871351 -1.333823 -2.176975 0.999711 5.131710 3.038857 5.509208 -27.304788 0.604622 6.040093 7.536263 -2.937800 2.501600 12.596300 6.144748 -0.496471 1.843644 -3.188426 -43.246720 -3.750862 21.225059 -30.157083 -6.581999 -0.070662 0.859206 -5.623580 19.862148 -23.320456 -8.431700 -7.125000 0.000000 0.000000 -5.829200 4.513700 5.380800 -1.970300 -0.989238 0.042391 5.649962 61.294820 -6.326478 -23.133913 35.750820 -6.487625 0.464701 -1.639800 -1.096374 -9.827075 -31.047589 5.075700 7.125000 0.000000 0.000000 23.080000 -58.180900 -7.709000 
45.058702 16.935991 12.232618 -176.071405 26.002769 178.666310 1.393478 -3.595098 -1.505804 -11.687224 7.967259 -21.860703 1.102126 10.143627 28.419023 -1.408371 10.452623 -3.902873 0.080700 -1.832500 -5.042900 -4.324910 6.138835 -7.930547 9.199213 -20.271792 36.284160 0.501564 -2.596598 1.751496 1.376298 -21.905249 -24.691638 -0.165400 2.619900 -7.222200 14.505368 0.747516 11.466545 1.718025 2.934150 -1.294159 -2.414274 1.053826 5.277959 3.080527 5.567533 -27.423347 0.638452 6.068814 7.232484 -2.906000 2.507200 12.421900 6.130169 -0.486475 1.871729 -2.854829 -43.308937 -4.392813 21.133115 -30.058284 -6.536950 -0.084322 0.863506 -5.452902 20.237456 -23.249806 -8.588200 -7.125000 0.000000 0.000000 -5.582400 4.516400 5.150500 -1.997449 -0.983650 0.054279 5.885428 61.346115 -6.286565 -23.309105 35.971519 -6.587773 0.461377 -1.640871 -1.260827 -10.168605 -31.217373 5.269900 7.125000 0.000000 0.000000 22.863500 -58.404100 -7.755900 
45.071699 16.908565 12.108584 -176.088030 25.946213 178.562484 1.387497 -3.615237 -1.539549 -11.751105 7.031618 -21.838032 1.306899 10.607246 29.760575 -1.410523 10.557711 -5.171131 0.027000 -1.061400 -2.917700 -4.270823 6.170081 -7.955420 8.809173 -20.080511 36.645747 0.509434 -2.776713 2.299830 1.373786 -21.785522 -24.316074 -0.114600 2.182800 -6.011000 14.026835 0.838690 11.551034 1.682685 3.017790 -1.267728 -2.297921 1.082420 5.313875 3.001423 5.626020 -27.584163 0.607256 6.176801 7.084973 -2.890700 2.533500 12.376700 6.123513 -0.495752 1.871600 -3.014656 -43.326868 -4.834744 21.094918 -30.027321 -6.526380 -0.102431 0.867234 -5.397604 20.685906 -23.124090 -8.760600 -7.125000 0.000000 0.000000 -5.283200 4.563000 4.867300 -2.001384 -0.974569 0.059246 6.064673 61.453615 -6.073473 -23.504270 36.188297 -6.686839 0.456107 -1.641997 -1.609669 -10.619362 -31.245579 5.493900 7.125000 0.000000 0.000000 22.434400 -58.519600 -7.663600 
45.084491 16.895977 11.985266 -176.043406 25.825460 178.489616 1.382012 -3.631820 -1.555617 -11.787860 6.206872 -21.698270 1.482826 10.977389 30.859593 -1.354505 10.355519 -6.319977 0.003900 -0.405400 -1.113800 -4.244519 6.204949 -7.968803 8.367880 -20.101363 36.783919 0.518831 -3.055693 3.070681 1.446969 -21.856123 -23.152070 -0.174700 2.692300 -7.423200 13.650252 0.924914 11.734550 1.644670 3.125932 -1.282810 -2.297769 1.127598 5.097659 3.131665 5.829514 -27.283607 0.106509 6.389232 6.626122 -3.174200 2.559300 12.088900 6.159965 -0.556741 1.887264 -3.311789 -43.350647 -4.868173 21.171892 -30.116859 -6.570385 -0.121358 0.864883 -5.750669 20.974863 -23.010638 -8.859400 -7.125000 0.000000 0.000000 -5.085400 4.630600 4.677100 -1.976799 -1.018311 0.096511 6.507887 61.584054 -6.022453 -23.442001 36.115548 -6.638387 0.472622 -1.625730 -0.976863 -9.778504 -30.370714 4.953300 7.125000 0.000000 0.000000 22.635000 -57.568000 -7.211500 
45.097795 16.894135 11.862051 -175.822857 25.657036 178.495037 1.383288 -3.626459 -1.555060 -11.671742 5.569317 -21.439402 1.639440 11.261707 31.757185 -1.244708 9.870362 -7.485808 0.004100 0.413500 1.136300 -4.230516 6.213326 -7.989230 8.306159 -20.027484 36.895729 0.524848 -3.331010 3.831012 1.519049 -21.977165 -22.038706 -0.217500 3.002200 -8.284800 13.512370 0.995053 11.862520 1.592234 3.227887 -1.291326 -2.363209 1.179591 5.047113 2.823898 5.747856 -27.510043 0.381888 6.389560 6.596178 -2.932700 2.566900 12.098700 6.131909 -0.544973 1.870252 -3.518349 -43.494841 -4.940807 21.245565 -30.183311 -6.606212 -0.141543 0.866108 -6.477935 21.212715 -23.102447 -9.005000 -7.125000 0.000000 0.000000 -4.942700 4.489000 4.558000 -2.029496 -0.967412 0.076262 6.921424 61.452153 -5.452849 -23.587097 36.265260 -6.714433 0.469472 -1.629074 -1.763391 -10.465672 -30.534068 5.304200 7.125000 0.000000 0.000000 22.071200 -57.846500 -7.169800 
45.111304 16.902527 11.734946 -175.542809 25.546928 178.582560 1.382954 -3.610393 -1.547286 -11.489160 5.320532 -21.154693 1.767570 11.446390 32.398602 -1.098133 9.160206 -8.382819 0.052600 1.480600 4.072300 -4.209453 6.188355 -8.000735 8.462870 -19.776029 36.956838 0.518441 -3.562635 4.506063 1.424430 -21.594305 -22.480399 -0.035400 1.214800 -3.340000 13.423330 1.108876 11.853890 1.551497 3.358263 -1.285960 -2.478553 1.254557 5.052720 2.965003 5.844566 -27.514108 0.354426 6.450119 6.474596 -2.965000 2.596000 12.036700 6.139029 -0.552915 1.868937 -3.725384 -43.734044 -5.071709 21.198236 -30.129186 -6.582886 -0.162940 0.871531 -7.008553 21.556791 -23.176640 -9.197700 -7.125000 0.000000 0.000000 -4.731400 4.341100 4.374900 -2.044294 -0.958393 0.084720 7.363521 61.295007 -4.930139 -23.749158 36.439513 -6.798566 0.477399 -1.633322 -2.129825 -10.548683 -30.861903 5.397800 7.125000 0.000000 0.000000 22.220100 -58.157700 -7.390000 
45.128394 16.920026 11.603134 -175.141766 25.551110 178.754139 1.388887 -3.580695 -1.520902 -11.181897 5.441317 -20.771206 1.841186 11.484627 32.654064 -0.975172 8.520240 -8.902667 0.129900 2.322800 6.398500 -4.211584 6.151165 -8.032387 8.786209 -19.499994 36.956934 0.519341 -3.773459 5.104119 1.541216 -22.003466 -21.449339 -0.030300 1.123900 -3.089900 13.415293 1.274107 11.731443 1.505873 3.532715 -1.288208 -2.646873 1.357035 5.062280 3.127369 5.841507 -27.279195 -0.000553 6.366256 6.146968 -3.214000 2.519100 11.797000 6.171479 -0.581924 1.884441 -3.890313 -43.947668 -5.080506 21.174997 -30.097078 -6.563202 -0.170464 0.865586 -7.015944 21.639109 -22.863995 -9.126300 -7.125000 0.000000 0.000000 -4.643200 4.657400 4.265200 -2.037958 -0.995816 0.104526 7.947408 61.190543 -4.324022 -23.808638 36.516939 -6.832340 0.483211 -1.635259 -2.183911 -10.466721 -31.013917 5.383900 7.125000 0.000000 0.000000 22.409400 -58.278200 -7.522900 
45.149271 16.944792 11.470708 -174.654772 25.577972 178.961906 1.395444 -3.534777 -1.482604 -10.764724 5.690073 -20.228294 1.858425 11.410106 32.579827 -0.852006 7.839460 -9.231496 0.230700 3.091200 8.532600 -4.223084 6.110446 -8.049942 9.131547 -19.335500 36.858507 0.516241 -3.997575 5.719065 1.599400 -22.228015 -20.892256 -0.000700 -0.168700 0.463400 13.455199 1.436891 11.628733 1.459036 3.718925 -1.310447 -2.823356 1.460363 5.005889 3.263841 5.848086 -26.979866 -0.013049 6.299760 5.994233 -3.258100 2.500700 11.631900 6.180350 -0.582142 1.888114 -4.128081 -44.023444 -4.715320 21.334798 -30.264884 -6.634434 -0.169762 0.848909 -7.187059 21.407686 -22.511780 -8.889900 -7.125000 0.000000 0.000000 -4.750500 5.083700 4.326100 -2.060153 -1.008882 0.112666 8.621611 61.098370 -3.628690 -23.781853 36.491042 -6.817324 0.489388 -1.634334 -2.099301 -10.290825 -30.951081 5.289800 7.125000 0.000000 0.000000 22.535300 -58.186100 -7.517500 
45.167794 16.975699 11.337259 -174.210235 25.576231 179.153231 1.401535 -3.491233 -1.440848 -10.419656 5.978125 -19.639233 1.839543 11.288770 32.338045 -0.777804 7.414078 -9.382393 0.308600 3.571400 9.873800 -4.249327 6.092471 -8.056512 9.205424 -19.431478 36.610766 0.510832 -4.307621 6.531528 1.698192 -22.604894 -19.778767 -0.036000 -1.224900 3.367900 13.460580 1.566687 11.592691 1.420692 3.878871 -1.345819 -2.987550 1.544097 4.892362 3.508845 5.994724 -26.910413 -0.123641 6.399976 6.017010 -3.356800 2.549600 11.665000 6.197980 -0.597730 1.879739 -4.510378 -44.086578 -4.284816 21.503939 -30.437783 -6.712273 -0.163676 0.834755 -7.494997 21.046305 -22.294106 -8.643300 -7.125000 0.000000 0.000000 -4.958100 5.388900 4.487700 -2.069322 -1.007916 0.108847 9.115161 60.971539 -2.820240 -23.777596 36.474400 -6.807882 0.496502 -1.634311 -2.083758 -10.128372 -30.965182 5.214600 7.125000 0.000000 0.000000 22.703900 -58.166100 -7.566500 
45.183759 17.010698 11.201353 -173.937269 25.683598 179.255908 1.411231 -3.459370 -1.398544 -10.407858 6.581806 -19.147298 1.826223 11.206646 32.167152 -0.829775 7.696092 -9.299801 0.093400 1.970600 5.424300 -4.259978 6.105653 -8.066089 8.910097 -19.589016 36.347530 0.495774 -4.628643 7.387725 1.772009 -22.864407 -18.434134 -0.127000 -2.297300 6.328100 13.300222 1.673895 11.587492 1.377823 4.005035 -1.368402 -3.022636 1.599990 4.843572 3.340461 6.023302 -27.132702 0.091505 6.507988 6.140402 -3.172500 2.612200 11.788900 6.175554 -0.589323 1.854266 -5.058638 -44.161065 -4.178161 21.545117 -30.473558 -6.730612 -0.145551 0.831442 -7.373169 20.648289 -22.292061 -8.458000 -7.125000 0.000000 0.000000 -5.214800 5.465000 4.714500 -2.104127 -0.965849 0.083602 9.336802 60.874810 -1.920266 -23.857963 36.542036 -6.838524 0.503184 -1.635755 -2.259485 -10.138865 -31.142116 5.248700 7.125000 0.000000 0.000000 22.820100 -58.327300 -7.697600 
